<svg version="1.2" baseProfile="tiny-ps" xmlns="http://www.w3.org/2000/svg" viewBox="0 0 284 98" width="284" height="98">
	<title>wsx_logo_2021-svg</title>
	<style>
		tspan { white-space:pre }
		.shp0 { fill: #a51e22 } 
		.shp1 { fill: #000000 } 
		.shp2 { fill: #ffffff } 
	</style>
	<g id="Layer">
		<path id="Layer" class="shp0" d="M148.1 39.1C148.1 44.8 143.2 49.4 137.2 49.4L11 49.4C5 49.4 0.1 44.8 0.1 39.1L0.1 10.4C0.1 4.7 5 0.1 11 0.1L137.2 0.1C143.2 0.1 148.1 4.7 148.1 10.4L148.1 39.1Z" />
	</g>
	<g id="Layer">
		<path id="Layer" class="shp1" d="M133.3 19.7C133.3 13.7 138.2 8.8 144.2 8.8L256.6 8.8C262.6 8.8 267.5 13.7 267.5 19.7L267.5 47.3C267.5 53.3 262.6 58.2 256.6 58.2L144.1 58.2C138.1 58.2 133.2 53.3 133.2 47.3L133.3 19.7Z" />
	</g>
	<g id="Layer">
		<path id="Layer" class="shp2" d="M42.6 33.4L42.6 18.1C42.6 17.1 43 16.2 43.7 15.5C44.4 14.8 45.3 14.4 46.3 14.4L47.2 14.4C48.2 14.4 49.1 14.8 49.8 15.5C50.5 16.2 50.9 17.1 50.9 18.1L50.9 36.5C50.9 37.6 50.6 38.5 49.9 39.1C49 40.1 48.1 40.5 47.1 40.5L18 40.5C16.9 40.5 16 40.1 15.2 39.2C14.4 38.5 14 37.5 14 36.4L14 18C14 17 14.4 16.1 15.1 15.4C15.8 14.7 16.7 14.3 17.7 14.3L18.6 14.3C19.6 14.3 20.5 14.7 21.2 15.4C21.9 16.1 22.3 17 22.3 18L22.3 33.3L28.3 33.3L28.3 18C28.3 17 28.7 16.1 29.4 15.4C30.1 14.7 31 14.3 32 14.3L33 14.3C34 14.3 34.9 14.7 35.6 15.4C36.3 16.1 36.7 17 36.7 18L36.7 33.3L42.6 33.4L42.6 33.4Z" />
	</g>
	<g id="Layer">
		<path id="Layer" fill-rule="evenodd" class="shp0" d="M37.6 33.4L37.6 32.5L36.5 32.5L37.6 33.4ZM37.6 32.5L41.6 32.5L41.6 18.1C41.6 16.8 42.1 15.7 43 14.8C43.9 13.9 45 13.4 46.3 13.4L47.2 13.4C48.5 13.4 49.6 13.9 50.5 14.8C51.4 15.7 51.9 16.8 51.9 18.1L51.9 36.5C51.9 37.9 51.5 39 50.7 39.7C49.7 40.8 48.5 41.4 47.2 41.4L18 41.4C16.6 41.4 15.4 40.8 14.5 39.8L14.6 39.9C13.6 38.9 13.1 37.8 13.1 36.4L13.1 15.2C13.1 13.9 13.5 15.7 14.4 14.7C15.3 13.7 16.4 13.3 17.7 13.3L18.6 13.3C19.9 13.3 21 13.8 21.9 14.7C22.7 15.6 23.2 16.7 23.2 18L23.2 32.4L27.4 32.4L27.4 18C27.4 16.7 27.8 15.6 28.7 14.7C29.6 13.8 30.7 13.4 32 13.4L33 13.4C34.3 13.4 35.4 13.9 36.3 14.8C37.1 15.7 37.6 16.8 37.6 18.1L37.6 32.5ZM27.4 33.3L28.3 32.4L27.4 32.4L27.4 33.3ZM22.3 32.4L23.2 33.3L23.2 32.4L22.3 32.4ZM41.6 33.4L42.5 32.5L41.6 32.5L41.6 33.4ZM43.7 33.4L43.7 34.4L35.9 34.4L35.9 18.2C35.9 17.4 35.6 16.8 35.1 16.2C34.5 15.7 33.9 15.4 33.1 15.4L32.1 15.4C31.3 15.4 30.6 15.7 30.1 16.2C29.6 16.7 29.3 17.4 29.3 18.2L29.3 34.4L21.5 34.4L21.5 18.2C21.5 17.4 21.3 16.7 20.7 16.2C20.1 15.7 19.5 15.4 18.7 15.4L17.8 15.4C17 15.4 16.3 15.6 15.8 16.2C15.3 16.8 15 17.4 15 18.2L15 36.6C15 37.4 15.3 38.1 15.9 38.7C16.5 39.4 17.2 39.7 18 39.7L47.1 39.7C47.9 39.7 48.6 39.3 49.3 38.5C49.8 38.1 50 37.4 50 36.5L50 18.1C50 17.3 49.7 16.7 49.2 16.1C48.6 15.6 48 15.3 47.2 15.3L46.3 15.3C45.5 15.3 44.8 15.5 44.3 16.1C43.8 16.7 43.5 17.3 43.5 18.1L43.5 33.4L43.7 33.4Z" />
	</g>
	<g id="Layer">
		<path id="Layer" fill-rule="evenodd" class="shp2" d="M87.8 33.4C88.5 34.1 88.9 35 88.9 36L88.9 36.9C88.9 37.9 88.5 38.8 87.8 39.5C87.1 40.2 86.2 40.6 85.2 40.6L59.6 40.6C58.5 40.6 57.6 40.2 56.9 39.4C56.1 38.7 55.7 37.8 55.7 36.7L55.7 18.6C55.7 17.5 56.1 16.6 56.9 15.9C57.6 15.1 58.5 14.7 59.6 14.7L85.2 14.7C86.3 14.7 87.2 15.1 87.9 15.9C88.7 16.6 89.1 17.5 89.1 18.6L89.1 27.2C89.1 27.9 88.9 28.5 88.6 29.1C88 30.4 86.9 31 85.1 31L63.7 31L63.7 32.6L85.1 32.6C86.2 32.4 87 32.7 87.8 33.4ZM63.8 24.3L80.9 24.3L80.9 22.7L63.8 22.7L63.8 24.3Z" />
	</g>
	<g id="Layer">
		<path id="Layer" fill-rule="evenodd" class="shp0" d="M62.9 25.2L62.9 21.8L81.8 21.8L81.8 25.2L62.9 25.2ZM63.8 23.6L64 23.6L64.7 24.3L64.7 23.6L80 23.6L80 24.3L80.7 23.6L80.9 23.6L80.8 23.5L80.9 23.4L80.7 23.4L80 22.7L80 23.4L64.7 23.4L64.7 22.7L64 23.4L63.8 23.4L63.9 23.5L63.8 23.6ZM63.9 23.5L64 23.4L64.7 23.4L64.7 23.6L64 23.6L63.9 23.5ZM80 23.4L80.7 23.4L80.8 23.5L80.7 23.6L80 23.6L80 23.4Z" />
		<path id="Layer" fill-rule="evenodd" class="shp0" d="M85.2 31.4L64.7 31.4L64.7 30.7L64 31.4L63.8 31.4L63.9 31.5L63.8 31.6L64 31.6L64.7 32.3L64.7 31.6L85.2 31.6C85.57 31.6 85.91 31.57 86.23 31.53C85.89 31.44 85.55 31.4 85.2 31.4ZM86.23 31.53C87.04 31.73 87.82 32.16 88.6 32.8C89.4 33.6 89.9 34.7 89.9 36L89.9 36.7C89.9 37.9 89.5 39 88.6 39.9C87.8 40.8 86.7 41.3 85.4 41.3L59.8 41.3C58.42 41.3 57.34 40.82 56.45 39.85C55.48 38.96 55 37.88 55 36.5L55 18.4C55 17.13 55.48 15.96 56.43 15.07C57.32 13.99 58.41 13.5 59.8 13.5L85.4 13.5C86.68 13.5 87.86 13.98 88.75 14.95C89.72 15.84 90.2 16.92 90.2 18.3L90.2 26.9C90.2 27.7 89.9 28.5 89.5 29.2L89.5 29.1C89.07 30.13 88.13 31.23 86.23 31.53ZM88.7 14.9L88.8 15C88.78 14.98 88.77 14.96 88.75 14.95C88.73 14.93 88.72 14.92 88.7 14.9ZM56.4 15.1L56.5 15C56.48 15.02 56.45 15.04 56.43 15.07C56.42 15.08 56.41 15.09 56.4 15.1ZM56.5 39.9L56.4 39.8C56.42 39.82 56.43 39.84 56.45 39.85C56.46 39.87 56.48 39.88 56.5 39.9ZM64.7 31.6L64 31.6L63.9 31.5L64 31.4L64.7 31.4L64.7 31.6ZM85.1 33.4L62.8 33.4L62.8 30L85.1 30C86.8 30 87.4 29.2 87.7 28.6L87.7 28.4C88 28 88.1 27.5 88.1 27L88.1 18.4C88.1 17.5 87.8 16.8 87.2 16.3C86.6 15.7 85.9 15.4 85.1 15.4L59.5 15.4C58.6 15.4 57.9 15.7 57.4 16.3L57.4 16.4C56.8 17 56.5 17.7 56.5 18.5L56.5 36.6C56.5 37.5 56.8 38.2 57.4 38.7C58 39.3 58.6 39.6 59.5 39.6L85.1 39.6C85.9 39.6 86.6 39.3 87.1 38.8C87.6 38.3 87.9 37.7 87.9 36.9L87.9 36C87.9 35.3 87.6 34.6 87.1 34.1C86.6 33.5 85.9 33.3 85.1 33.4Z" />
	</g>
	<g id="Layer">
		<path id="Layer" fill-rule="evenodd" class="shp2" d="M126.3 39.2C125.6 40.1 124.6 40.5 123.5 40.5L97.3 40.5C96.2 40.5 95.3 40.1 94.5 39.2C93.7 38.5 93.3 37.6 93.3 36.5L93.3 8.2C93.3 7.2 93.7 6.3 94.4 5.6C95.1 4.9 96 4.5 97 4.5L98 4.5C99 4.5 99.9 4.9 100.6 5.6C101.3 6.3 101.7 7.2 101.7 8.2L101.7 14.4L123.6 14.4C125.2 14.4 126.4 15 127 16.2C127.4 16.8 127.6 17.5 127.6 18.2L127.6 36.5C127.6 37.6 127.1 38.5 126.3 39.2ZM101.6 32.5L119.2 32.5L119.2 22.7L101.6 22.7L101.6 32.5Z" />
	</g>
	<g id="Layer">
		<path id="Layer" fill-rule="evenodd" class="shp0" d="M100.7 33.4L100.7 21.8L120.1 21.8L120.1 33.4L100.7 33.4ZM101.6 23.6L102.5 23.6L102.5 22.7L101.6 23.6ZM119.2 23.6L118.3 22.7L118.3 23.6L119.2 23.6ZM118.3 32.5L119.2 31.6L118.3 31.6L118.3 32.5ZM101.6 31.6L102.5 32.5L102.5 31.6L101.6 31.6ZM102.5 31.6L118.3 31.6L118.3 23.6L102.5 23.6L102.5 31.6Z" />
		<path id="Layer" fill-rule="evenodd" class="shp0" d="M126.92 39.78C125.94 40.83 124.86 41.3 123.5 41.3L97.3 41.3C95.92 41.3 94.74 40.72 93.85 39.75C92.88 38.86 92.4 37.78 92.4 36.4L92.4 8.1C92.4 6.8 92.8 5.7 93.7 4.8C94.6 3.9 95.7 3.4 97 3.4L98 3.4C99.3 3.4 100.4 3.9 101.3 4.8C102.1 5.7 102.6 6.8 102.6 8.1L102.6 13.4L123.6 13.4C126.1 13.4 127.3 14.7 127.8 15.7C128.3 16.5 128.5 17.3 128.5 18.2L128.5 36.5C128.5 37.89 128.01 38.98 126.92 39.78ZM101.7 13.4L102.6 14.3L102.6 13.4L101.7 13.4ZM93.9 39.8L93.8 39.7C93.82 39.72 93.83 39.74 93.85 39.75C93.87 39.77 93.88 39.78 93.9 39.8ZM127 39.7L126.9 39.8C126.91 39.79 126.92 39.79 126.92 39.78C126.95 39.76 126.97 39.73 127 39.7ZM125.6 38.6C126.4 38 126.7 37.3 126.8 36.5L126.8 18.2C126.8 17.6 126.6 17.1 126.3 16.6C126 16.1 125.4 15.3 123.7 15.3L100.9 15.3L100.9 8.2C100.9 7.4 100.6 6.8 100.1 6.2C99.5 5.7 98.9 5.4 98.1 5.4L97.1 5.4C96.3 5.4 95.6 5.6 95.1 6.2C94.6 6.8 94.3 7.4 94.3 8.2L94.3 36.5C94.3 37.4 94.6 38 95.2 38.6C95.8 39.3 96.4 39.6 97.3 39.6L123.5 39.6C124.3 39.6 125 39.2 125.6 38.6Z" />
	</g>
	<g id="Layer">
		<path id="Layer" class="shp2" d="M141.6 45.4L141.6 44.5C141.6 43.5 142 42.6 142.7 41.9C143.4 41.2 144.3 40.8 145.3 40.8L166.7 40.8L166.7 39.3L145.3 39.3C143.6 39.3 142.4 38.7 141.8 37.4C141.4 36.8 141.3 36.2 141.3 35.5L141.3 26.9C141.3 26.9 141.5 26.4 141.8 25.4C142 24.8 142.2 24.4 142.5 24.2C143.2 23.4 144.2 23 145.3 23L170.9 23C171.9 23 172.8 23.4 173.5 24.1C174.2 24.8 174.6 25.7 174.6 26.7L174.6 27.6C174.6 28.6 174.2 29.5 173.5 30.2C172.8 30.9 171.9 31.3 170.9 31.3L149.5 31.3L149.5 32.9L170.8 32.9C172.5 32.9 173.7 33.5 174.2 34.8C174.6 35.4 174.7 36 174.7 36.7L174.7 45.3C174.7 45.3 174.5 45.8 174.2 46.8C174 47.4 173.8 47.8 173.4 48.1C172.7 48.9 171.8 49.3 170.7 49.3L145.1 49.3C144.1 49.3 143.3 49 142.6 48.2C142 47.3 141.6 46.4 141.6 45.4Z" />
	</g>
	<g id="Layer">
		<path id="Layer" fill-rule="evenodd" class="shp1" d="M140.9 45.4L140.9 44.5C140.9 43.3 141.3 42.2 142.2 41.3C142.72 40.71 143.38 40.29 144.13 40.07C142.39 39.71 141.51 38.6 141.1 37.7L141.1 37.8C140.7 37 140.5 36.2 140.5 35.4L140.5 26.6L140.6 26.4C140.6 26.4 140.7 26.2 141.1 25C141.3 24.2 141.7 23.7 142.1 23.3L142 23.4C142.9 22.4 144 21.9 145.4 21.9L171 21.9C172.2 21.9 173.3 22.4 174.2 23.3C175 24.2 175.5 25.3 175.5 26.5L175.5 27.4C175.5 28.6 175.1 29.7 174.2 30.6C173.56 31.31 172.83 31.71 172.03 31.89C173.92 32.22 174.78 33.37 175.2 34.3L175.2 34.2C175.6 34.9 175.8 35.7 175.8 36.5L175.8 45.3L175.7 45.4C175.7 45.4 175.5 45.8 175.2 46.8C175 47.5 174.7 48.1 174.3 48.4C173.4 49.4 172.3 49.9 170.9 49.9L145.3 49.9C144.1 50 143 49.5 142.1 48.6C141.2 47.7 140.7 46.6 140.9 45.4ZM170.9 31.8L150.5 31.8L150.5 31.1L149.8 31.8L149.6 31.8L149.7 31.9L149.6 32L149.8 32L150.5 32.7L150.5 32L171 32C171.35 32 171.7 31.97 172.03 31.89C171.69 31.83 171.31 31.8 170.9 31.8ZM145.4 40.2L165.9 40.2L165.9 40.8L166.5 40.2L166.8 40.2L166.65 40.05L166.8 39.9L166.5 39.9L165.9 39.3L165.9 39.9L145.4 39.9C144.95 39.9 144.53 39.96 144.13 40.07C144.51 40.15 144.93 40.2 145.4 40.2ZM150.5 32L149.8 32L149.7 31.9L149.8 31.8L150.5 31.8L150.5 32ZM165.9 39.9L166.5 39.9L166.65 40.05L166.5 40.2L165.9 40.2L165.9 39.9ZM143.4 47.7C144 48.2 144.6 48.5 145.3 48.5L170.9 48.5C171.7 48.5 172.4 48.2 173 47.5C173.2 47.3 173.4 47 173.5 46.6C173.7 45.85 173.83 45.45 173.9 45.24L173.9 36.8C173.9 36.3 173.8 35.8 173.5 35.4L173.5 35.2C173.2 34.6 172.7 33.8 170.9 33.8L148.7 33.8L148.7 30.4L171 30.4C171.7 30.4 172.4 30.2 172.9 29.6C173.4 29.1 173.7 28.5 173.7 27.7L173.7 26.8C173.7 26.1 173.4 25.5 172.9 24.9C172.4 24.4 171.8 24.1 171 24.1L145.4 24.1C144.6 24.1 143.9 24.4 143.3 25C143.1 25.1 143 25.4 142.8 25.9C142.53 26.57 142.38 26.95 142.3 27.16L142.3 35.7C142.3 36.2 142.4 36.7 142.7 37.1C142.9 37.7 143.5 38.5 145.3 38.5L167.6 38.5L167.6 41.8L145.3 41.8C144.5 41.8 143.8 42.1 143.3 42.6C142.8 43.1 142.5 43.7 142.5 44.5L142.5 45.4C142.5 46.1 142.8 46.8 143.4 47.7ZM142.3 27.1L142.26 27.28C142.27 27.24 142.28 27.21 142.3 27.16L142.3 27.1ZM142.26 27.28C142.2 27.43 142.2 27.45 142.2 27.5L142.26 27.28ZM173.9 45.4L174 45C174 45 173.98 45.03 173.9 45.24L173.9 45.4Z" />
	</g>
	<g id="Layer">
		<path id="Layer" class="shp2" d="M188.1 30.5L179.5 30.5C178.5 30.5 177.6 30.2 176.9 29.5C176.2 28.8 175.8 28.1 175.8 27.2L175.8 25.8C175.8 25 176.2 24.3 176.9 23.7C177.6 23.1 178.5 22.8 179.5 22.8L188.1 22.8L188.2 16.7C188.2 15.9 188.6 15.1 189.3 14.2C190.1 13.4 190.9 13 191.9 13L192.8 13C193.8 13 194.6 13.4 195.4 14.3C196.1 15.1 196.5 15.9 196.5 16.7L196.5 22.8L205.8 22.8C206.8 22.8 207.7 23.1 208.4 23.7C209.1 24.3 209.5 25 209.5 25.8L209.5 27.2C209.5 28 209.1 28.8 208.4 29.5C207.7 30.2 206.8 30.5 205.8 30.5L196.5 30.5L196.5 45.4C196.5 46.3 196.1 47.1 195.4 47.9C194.6 48.8 193.7 49.2 192.8 49.2L191.9 49.2C190.9 49.2 190 48.8 189.3 47.9C188.6 47.1 188.2 46.3 188.2 45.5L188.1 30.5L188.1 30.5Z" />
	</g>
	<g id="Layer">
		<path id="Layer" fill-rule="evenodd" class="shp1" d="M187.2 45.4L187.11 31.4L179.4 31.4C178.2 31.4 177.1 30.9 176.2 30.1C175.3 29.3 174.8 28.3 174.8 27.2L174.8 25.8C174.8 24.7 175.3 23.7 176.2 23C177.1 22.3 178.2 21.9 179.4 21.9L187.11 21.9L187.2 16.7C187.2 15.6 187.7 14.6 188.6 13.6C189.6 12.6 190.7 12.1 191.9 12.1L192.8 12.1C194 12.1 195.1 12.6 196.1 13.7C197 14.7 197.4 15.7 197.4 16.7L197.4 21.9L205.8 21.9C207 21.9 208.1 22.3 209 23C209.9 23.8 210.4 24.7 210.4 25.8L210.4 27.2C210.4 28.3 209.9 29.2 209 30.1C208.1 30.9 207 31.3 205.8 31.3L197.4 31.3L197.4 45.3C197.4 46.4 196.9 47.5 196 48.4C195.1 49.5 193.9 50 192.7 50L191.8 50C190.6 50 189.5 49.5 188.5 48.4C187.6 47.4 187.2 46.4 187.2 45.4ZM197.4 30.4L196.5 31.3L197.4 31.3L197.4 30.4ZM196.5 21.9L197.4 22.8L197.4 21.9L196.5 21.9ZM187.1 22.8L188 21.9L187.11 21.9L187.1 22.8ZM188 31.4L187.1 30.5L187.11 31.4L188 31.4ZM188.9 29.6L188.9 45.4C188.9 46 189.2 46.6 189.8 47.2C190.4 47.9 191.1 48.2 191.8 48.2L192.7 48.2C193.4 48.2 194.1 47.9 194.7 47.2C195.3 46.6 195.6 46 195.6 45.4L195.6 29.6L205.8 29.6C206.6 29.6 207.2 29.3 207.8 28.8C208.3 28.3 208.6 27.8 208.6 27.2L208.6 25.8C208.6 25.4 208.5 24.9 207.8 24.4C207.2 23.9 206.5 23.7 205.7 23.7L195.5 23.7L195.5 16.7C195.5 16.1 195.2 15.5 194.7 14.9C194.1 14.2 193.5 13.9 192.8 13.9L191.9 13.9C191.2 13.9 190.6 14.2 190 14.8C189.4 15.5 189.1 16.1 189.1 16.7L189 22.8L189 23.7L179.5 23.7C178.7 23.7 178 24 177.4 24.4C176.8 25 176.7 25.5 176.7 25.8L176.7 27.2C176.7 27.8 177 28.3 177.5 28.8C178.1 29.3 178.7 29.6 179.5 29.6L188.9 29.6Z" />
	</g>
	<g id="Layer">
		<path id="Layer" class="shp2" d="M219.9 45.4C219.9 46.4 219.5 47.3 218.8 48.1C218.1 48.9 217.2 49.2 216.2 49.2L215.3 49.2C214.3 49.2 213.4 48.8 212.6 48.1C211.9 47.4 211.5 46.5 211.5 45.4L211.5 26.8C211.5 25.8 211.9 24.9 212.6 24.1C213.3 23.4 214.2 23 215.3 23L216.2 23C217.2 23 218.1 23.4 218.8 24.1C219.5 24.8 219.9 25.7 219.9 26.8L219.9 45.4Z" />
	</g>
	<g id="Layer">
		<path id="Layer" fill-rule="evenodd" class="shp1" d="M220.8 45.4C220.8 46.7 220.3 47.8 219.4 48.7C218.5 49.6 217.4 50.1 216.1 50.1L215.2 50.1C213.9 50.1 212.8 49.6 211.9 48.7C211 47.8 210.5 46.7 210.5 45.4L210.5 26.8C210.5 25.5 211 24.4 211.9 23.5C212.8 22.6 213.9 22.1 215.2 22.1L216.1 22.1C217.4 22.1 218.5 22.6 219.4 23.5C220.3 24.4 220.8 25.5 220.8 26.8C220.8 26.8 220.8 45.4 220.8 45.4ZM219 26.8C219 26 218.8 25.3 218.2 24.8C217.6 24.3 217 24 216.2 24L215.3 24C214.5 24 213.8 24.3 213.3 24.8C212.8 25.3 212.5 26 212.5 26.8L212.5 45.4C212.5 46.2 212.8 46.8 213.3 47.4C213.8 47.9 214.5 48.2 215.3 48.2L216.2 48.2C217 48.2 217.6 48 218.2 47.4C218.7 46.9 219 46.2 219 45.4C219 45.4 219 26.8 219 26.8Z" />
	</g>
	<g id="Layer">
		<path id="Layer" class="shp2" d="M254.6 41.9L246.6 35.9L254.6 29.9C255.4 29.3 255.9 28.5 256.1 27.4C256.3 26.4 256 25.5 255.4 24.6L254.8 23.8C254.2 23 253.4 22.5 252.3 22.4C251.2 22.3 250.3 22.5 249.5 23.1L239.5 30.5L229.5 23.1C228.7 22.5 227.7 22.2 226.7 22.4C225.7 22.6 224.9 23 224.2 23.8L223.6 24.6C223 25.4 222.7 26.4 222.9 27.4C223 28.4 223.5 29.2 224.4 29.9L232.4 35.9L224.4 41.9C223.6 42.5 223.1 43.4 222.9 44.4C222.8 45.4 223 46.4 223.6 47.2L224.2 48C224.8 48.8 225.7 49.3 226.7 49.5C227.7 49.6 228.7 49.4 229.5 48.8L239.5 41.4L249.5 48.8C250.3 49.4 251.3 49.7 252.3 49.5C253.3 49.4 254.1 48.9 254.8 48L255.4 47.2C256 46.4 256.2 45.5 256.1 44.4C255.9 43.4 255.4 42.5 254.6 41.9Z" />
	</g>
	<g id="Layer">
		<path id="Layer" fill-rule="evenodd" class="shp1" d="M257.1 44.4C257.3 45.6 257 46.8 256.2 47.8L255.6 48.6C254.8 49.6 253.8 50.2 252.5 50.4C251.2 50.6 250 50.3 249 49.5L239.55 42.51L230.1 49.5C229 50.3 227.9 50.6 226.6 50.4C225.3 50.2 224.3 49.6 223.5 48.6L222.9 47.8C222.1 46.8 221.8 45.7 222 44.4C222.2 43.1 222.8 42.1 223.8 41.3L230.87 36L223.8 30.7C222.8 29.9 222.2 28.8 222 27.6C221.8 26.4 222.1 25.2 222.9 24.2L223.5 23.4C224.2 22.4 225.2 21.8 226.5 21.6C227.8 21.4 229 21.7 230 22.5L239.45 29.49L248.9 22.5C250 21.7 251.2 21.4 252.4 21.6C253.6 21.8 254.6 22.4 255.4 23.4L256 24.2C256.8 25.2 257.1 26.3 256.9 27.6C256.8 28.9 256.1 29.9 255.1 30.7L248.04 35.99L255.1 41.2C256.1 41.9 256.8 43 257.1 44.4ZM247.1 35.3L247.1 36.7L248.04 35.99L247.1 35.3ZM238.9 29.9L240 29.9L239.45 29.49L238.9 29.9ZM231.8 36.7L231.8 35.3L230.87 36L231.8 36.7ZM240.1 42.1L239 42.1L239.55 42.51L240.1 42.1ZM254.1 42.7L246.1 36.7L245.1 36L246.1 35.3L254.1 29.3C254.7 28.8 255.1 28.2 255.2 27.4C255.4 26.6 255.2 25.9 254.7 25.3L254.1 24.5C253.6 23.9 253 23.5 252.2 23.4C251.4 23.3 250.8 23.5 250.1 24L240.1 31.4L239.6 31.8L239.1 31.4L229.1 24C228.5 23.5 227.8 23.3 227 23.4C226.2 23.5 225.6 23.9 225.1 24.5L224.5 25.3C224 25.9 223.8 26.6 223.9 27.4C224 28.2 224.4 28.8 225 29.3L233 35.3L234 36L233 36.7L225 42.6C224.4 43.1 224 43.7 223.9 44.5C223.8 45.3 223.9 46 224.4 46.6L225 47.4C225.5 48 226.1 48.4 226.9 48.5C227.7 48.6 228.4 48.4 229 47.9L239 40.5L239.5 40.1L240 40.5L250 48C250.6 48.4 251.3 48.6 252.1 48.5C252.9 48.4 253.5 48 254 47.4L254.6 46.6C255 46 255.2 45.3 255.1 44.5C255 43.7 254.7 43.1 254.1 42.7Z" />
	</g>
	<g id="Layer">
		<path id="Layer" class="shp2" d="M219.9 19.2C219.9 20.2 219.5 21.1 218.8 21.9C218.1 22.6 217.2 23 216.2 23L215.3 23C214.3 23 213.4 22.6 212.6 21.9C211.8 21.2 211.5 20.3 211.5 19.2L211.5 16.9C211.5 15.9 211.9 15 212.6 14.2C213.3 13.5 214.2 13.1 215.3 13.1L216.2 13.1C217.2 13.1 218.1 13.5 218.8 14.2C219.5 14.9 219.9 15.8 219.9 16.9L219.9 19.2Z" />
	</g>
	<g id="Layer">
		<path id="Layer" fill-rule="evenodd" class="shp1" d="M220.8 19.2C220.8 20.5 220.3 21.6 219.4 22.5C218.5 23.5 217.4 23.9 216.1 23.9L215.2 23.9C213.9 23.9 212.8 23.4 211.9 22.5C211 21.6 210.5 20.5 210.5 19.2L210.5 16.9C210.5 15.6 211 14.5 211.9 13.6C212.8 12.7 213.9 12.2 215.2 12.2L216.1 12.2C217.4 12.2 218.5 12.7 219.4 13.6C220.3 14.5 220.8 15.6 220.8 16.9C220.8 16.9 220.8 19.2 220.8 19.2ZM219 16.9C219 16.1 218.8 15.4 218.2 14.9C217.6 14.4 217 14.1 216.2 14.1L215.3 14.1C214.5 14.1 213.8 14.4 213.3 14.9C212.8 15.4 212.5 16.1 212.5 16.9L212.5 19.2C212.5 20 212.7 20.6 213.3 21.2C213.8 21.7 214.5 22 215.3 22L216.2 22C217 22 217.6 21.8 218.2 21.2C218.7 20.7 219 20 219 19.2C219 19.2 219 16.9 219 16.9Z" />
	</g>
	<g id="Layer">
		<g id="Layer">
			<path id="Layer" class="shp2" d="M272.8 11.1L270.8 11.1L270.8 10.4L275.8 10.4L275.8 11.1L273.7 11.1L273.7 17.1L272.8 17.1L272.8 11.1Z" />
		</g>
		<g id="Layer">
			<path id="Layer" class="shp2" d="M282.2 14.1C282.2 13.2 282.1 12 282.1 11.2L282.1 11.2C281.9 12 281.6 12.8 281.3 13.8L280.1 17.1L279.4 17.1L278.3 13.9C278 13 277.7 12.1 277.5 11.3L277.5 11.3C277.5 12.1 277.4 13.3 277.4 14.3L277.2 17.2L276.4 17.2L276.9 10.5L278 10.5L279.2 13.8C279.5 14.6 279.7 15.4 279.9 16.1L279.9 16.1C280.1 15.4 280.3 14.7 280.6 13.8L281.8 10.5L282.9 10.5L283.3 17.2L282.5 17.2L282.2 14.1Z" />
		</g>
	</g>
	<g id="Layer">
		<path id="Layer" class="shp2" d="M17.2 72L17.2 92.4L14.9 92.4L14.9 72L17.2 72Z" />
		<path id="Layer" fill-rule="evenodd" class="shp2" d="M26.5 92.6C24 92.6 22.3 92.1 21.2 91.1C20.1 90.1 19.6 88.5 19.6 86.2L19.6 83.9C19.6 81.7 20.1 80.1 21.2 79.2C22.3 78.3 24 77.8 26.5 77.8L31.4 77.8C33.8 77.8 35.6 78.3 36.7 79.2C37.8 80.1 38.3 81.7 38.3 83.9L38.3 86.2C38.3 88.5 37.8 90.1 36.7 91.1C35.6 92.1 33.9 92.6 31.4 92.6L26.5 92.6ZM27.1 90.4L30.8 90.4C32.9 90.4 34.3 90.1 35 89.5C35.7 88.9 36 87.7 36 85.9L36 84.2C36 82.5 35.7 81.3 35 80.7C34.3 80.1 32.9 79.8 30.8 79.8L27.1 79.8C25 79.8 23.6 80.1 23 80.7C22.3 81.3 22 82.5 22 84.2L22 85.9C22 87.7 22.3 88.8 23 89.5C23.6 90.1 25 90.4 27.1 90.4Z" />
		<path id="Layer" fill-rule="evenodd" class="shp2" d="M46.9 92.6C44.4 92.6 42.7 92.1 41.6 91.1C40.5 90.1 40 88.5 40 86.2L40 83.9C40 81.7 40.5 80.1 41.6 79.2C42.7 78.3 44.4 77.8 46.9 77.8L51.8 77.8C54.2 77.8 56 78.3 57.1 79.2C58.2 80.1 58.7 81.7 58.7 83.9L58.7 86.2C58.7 88.5 58.2 90.1 57.1 91.1C56 92.1 54.3 92.6 51.8 92.6L46.9 92.6ZM47.5 90.4L51.2 90.4C53.3 90.4 54.7 90.1 55.4 89.5C56.1 88.9 56.4 87.7 56.4 85.9L56.4 84.2C56.4 82.5 56.1 81.3 55.4 80.7C54.7 80.1 53.3 79.8 51.2 79.8L47.5 79.8C45.4 79.8 44 80.1 43.4 80.7C42.7 81.3 42.4 82.5 42.4 84.2L42.4 85.9C42.4 87.7 42.7 88.8 43.4 89.5C44 90.1 45.4 90.4 47.5 90.4Z" />
		<path id="Layer" class="shp2" d="M63.5 72L63.5 83.2L65 83.2L73 77.9L76.6 77.9L67 84.2L78.4 92.3L74.9 92.3L65 85.4L63.6 85.4L63.6 92.3L61.3 92.3L61.3 72L63.5 72Z" />
		<path id="Layer" fill-rule="evenodd" class="shp2" d="M106.8 92.1C106.8 93.9 106.2 95.2 105.1 96.1C104 97 102.2 97.4 100 97.4L95.8 97.4C93.6 97.4 91.9 97 90.8 96.2C90.3 95.8 89.8 95.3 89.5 94.7C89.2 94.1 89.1 93.4 89.1 92.6L91.4 92.6C91.4 93.5 91.8 94.2 92.5 94.6C93.2 95 94.5 95.2 96.2 95.2L99.8 95.2C101.7 95.2 103 95 103.7 94.5C104.4 94 104.7 93.2 104.7 91.9L104.7 89.6C104.2 90.3 103.6 90.8 103 91.2C102.4 91.6 101.5 91.7 100.3 91.7L95.8 91.7C93.4 91.7 91.6 91.2 90.6 90.3C89.5 89.4 89 87.8 89 85.6L89 83.9C89 81.8 89.5 80.2 90.6 79.3C91.7 78.4 93.4 77.9 95.9 77.9L99.1 77.9C101 77.9 102.3 78.1 103.1 78.4C103.9 78.7 104.4 79.3 104.9 80.1L104.9 78L107 78L107 92.1L106.8 92.1ZM96.1 89.6L99.7 89.6C101.6 89.6 102.9 89.3 103.6 88.8C104.3 88.3 104.6 87.3 104.6 86L104.6 83.6C104.6 82.2 104.3 81.3 103.6 80.8C103.3 80.5 102.8 80.3 102.1 80.2C101.5 80.1 100.7 80 99.7 80L96.1 80C94.2 80 92.9 80.3 92.2 80.8C91.5 81.3 91.2 82.3 91.2 83.7L91.2 86.1C91.2 87.5 91.5 88.4 92.2 88.9C92.9 89.3 94.2 89.6 96.1 89.6Z" />
		<path id="Layer" fill-rule="evenodd" class="shp2" d="M115.5 92.6C113 92.6 111.3 92.1 110.2 91.1C109.1 90.1 108.6 88.5 108.6 86.2L108.6 83.9C108.6 81.7 109.1 80.1 110.2 79.2C111.3 78.3 113 77.8 115.5 77.8L120.4 77.8C122.8 77.8 124.6 78.3 125.7 79.2C126.8 80.1 127.3 81.7 127.3 83.9L127.3 86.2C127.3 88.5 126.8 90.1 125.7 91.1C124.6 92.1 122.9 92.6 120.4 92.6L115.5 92.6ZM116.1 90.4L119.8 90.4C121.9 90.4 123.3 90.1 124 89.5C124.7 88.9 125 87.7 125 85.9L125 84.2C125 82.5 124.7 81.3 124 80.7C123.3 80.1 121.9 79.8 119.8 79.8L116.1 79.8C114 79.8 112.6 80.1 112 80.7C111.3 81.3 111 82.5 111 84.2L111 85.9C111 87.7 111.3 88.8 112 89.5C112.6 90.1 114 90.4 116.1 90.4Z" />
		<path id="Layer" fill-rule="evenodd" class="shp2" d="M135.9 92.6C133.4 92.6 131.7 92.1 130.6 91.1C129.5 90.1 129 88.5 129 86.2L129 83.9C129 81.7 129.5 80.1 130.6 79.2C131.7 78.3 133.4 77.8 135.9 77.8L140.8 77.8C143.2 77.8 145 78.3 146.1 79.2C147.2 80.1 147.7 81.7 147.7 83.9L147.7 86.2C147.7 88.5 147.2 90.1 146.1 91.1C145 92.1 143.3 92.6 140.8 92.6L135.9 92.6ZM136.5 90.4L140.2 90.4C142.3 90.4 143.7 90.1 144.4 89.5C145.1 88.9 145.4 87.7 145.4 85.9L145.4 84.2C145.4 82.5 145.1 81.3 144.4 80.7C143.7 80.1 142.3 79.8 140.2 79.8L136.5 79.8C134.4 79.8 133 80.1 132.4 80.7C131.7 81.3 131.4 82.5 131.4 84.2L131.4 85.9C131.4 87.7 131.7 88.8 132.4 89.5C133 90.1 134.4 90.4 136.5 90.4Z" />
		<path id="Layer" fill-rule="evenodd" class="shp2" d="M159.9 92.6L156.1 92.6C153.6 92.6 151.9 92.1 150.8 91.1C149.7 90.1 149.2 88.5 149.2 86.2L149.2 83.9C149.2 81.7 149.7 80.1 150.8 79.2C151.9 78.2 153.6 77.8 156.1 77.8L160.5 77.8C161.6 77.8 162.4 78 163.2 78.3C163.9 78.6 164.5 79.1 165 79.8L165 72L167.2 72L167.2 92.4L165.2 92.4L165.2 90C164.8 90.9 164.2 91.6 163.5 92C162.8 92.4 161.6 92.6 159.9 92.6ZM159.9 90.4C162 90.4 163.4 90.1 164 89.5C164.7 88.9 165 87.7 165 85.9L165 84.2C165 82.5 164.7 81.3 164 80.7C163.3 80.1 161.9 79.8 159.9 79.8L156.7 79.8C154.6 79.8 153.2 80.1 152.6 80.7C151.9 81.3 151.6 82.5 151.6 84.2L151.6 85.9C151.6 87.7 151.9 88.8 152.6 89.5C153.3 90.1 154.7 90.4 156.7 90.4L159.9 90.4Z" />
	</g>
</svg>